<svg width="116" height="37" viewBox="0 0 116 37" xmlns="http://www.w3.org/2000/svg"><title>Group 2</title><desc>Created with Sketch.</desc><g fill="#4A4A4A"><text font-family="Roboto-Medium, Roboto" font-size="20" font-weight="400" letter-spacing="3.23" transform="translate(-652 -99) translate(643 91)"><tspan x="52" y="27">sector</tspan><tspan x="52" y="43">spac</tspan><tspan x="107.928" y="43">e</tspan></text><g fill-rule="nonzero"><path d="M3.018 12.515c-1.187-1.319-1.103-3.337.188-4.499l5.176-4.661c1.291-1.162 3.307-1.035 4.494.284l2.809 3.119 1.263-1.137-2.809-3.119c-1.828-2.03-4.931-2.226-6.918-.437l-4.637 4.175-1.044-1.159c-.229-.254-.617-.279-.866-.055-.249.224-.265.612-.036.867l1.061 1.178c-1.649 1.823-1.658 4.676.057 6.58l2.809 3.12 1.263-1.137-2.809-3.119zM23.22 23.279l-.504.454-.109.191c-.075.167-.108.338-.094.498l.109 1.19 2.477-2.23-1.183-.235c-.217-.041-.465.01-.695.132zM24.017 14.589c.1.111.222.199.353.254l2.598 1.113c-.143-.209-.298-.414-.473-.609l-4.391-4.877-.983.885 2.898 3.233zM22.752 3.367c-.724-.046-1.449.205-1.987.69l-4.533 4.081c-.231-.483-.533-.942-.909-1.359-2.132-2.368-5.809-2.547-8.195-.399s-2.592 5.823-.46 8.192c.376.417.8.765 1.257 1.046l-4.545 4.093c-.516.464-.821 1.1-.86 1.79-.039.69.194 1.351.655 1.863.952 1.057 2.592 1.138 3.657.179l3.727-3.355c.358-.322.909-.296 1.229.059l2.988 3.319c.204.226.344.503.407.806l2.098 9.753c.343 1.65 1.97 2.703 3.627 2.347l.053-.013c.515-.12.982-.365 1.366-.71.198-.179.375-.384.524-.614.448-.688.603-1.508.434-2.314l-1.719-7.941c-.069-.332-.05-.677.056-.999.106-.322.295-.613.547-.84.512-.461 1.237-.618 1.886-.41l7.731 2.544c.78.25 1.612.18 2.345-.196.729-.375 1.272-1.01 1.526-1.786.528-1.608-.348-3.337-1.949-3.851l-9.486-3.107c-.289-.093-.55-.261-.754-.488l-2.991-3.322c-.32-.355-.288-.906.07-1.228l3.725-3.354c.516-.464.821-1.1.86-1.791.037-.66-.177-1.3-.603-1.803-.442-.523-1.072-.836-1.775-.881zm-14.481 4.283c1.68-1.513 4.269-1.387 5.772.282 1.502 1.669 1.358 4.257-.323 5.77-1.68 1.513-4.27 1.386-5.772-.282-1.502-1.669-1.357-4.257.323-5.77zm-1.983 14.084l-.6.54c-.359.323-.912.295-1.234-.062-.156-.173-.234-.396-.221-.629.013-.233.116-.447.29-.603l.6-.54 1.166 1.295zm15.326-13.799l-2.211 1.991c-1.064.958-1.157 2.595-.207 3.65l2.992 3.322c.405.449.922.784 1.492.966l9.485 3.107c.708.228 1.095.989.861 1.699-.112.341-.349.62-.67.784-.323.166-.69.197-1.028.088l-7.731-2.544c-1.235-.396-2.603-.1-3.571.771-.477.43-.835.978-1.035 1.587-.199.608-.236 1.259-.105 1.89l1.719 7.942c.074.353.006.714-.191 1.017-.198.302-.5.511-.854.587l-.036.009c-.719.135-1.416-.325-1.566-1.046l-2.098-9.753c-.123-.591-.402-1.141-.806-1.591l-2.988-3.319c-.95-1.055-2.588-1.133-3.652-.176l-2.213 1.992-1.166-1.295 3.649-3.286c1.776.396 3.718-.046 5.178-1.36 1.459-1.314 2.102-3.199 1.894-5.007l3.691-3.323 1.166 1.295zm1.6-2.575c.184.218.213.451.204.609-.013.232-.116.447-.29.603l-.6.54-1.166-1.295.545-.491c.194-.175.457-.266.721-.248.236.015.444.115.585.282zM17.392 14.181l-3.572 3.216c-.245.22-.245.619-.002.89l2.685 2.982c.244.271.64.312.885.091l3.572-3.216c.245-.22.245-.619.002-.89l-2.685-2.982c-.244-.271-.64-.312-.885-.091zm2.242 3.381l-2.685 2.418-1.802-2.001 2.685-2.418 1.802 2.001zM12.918 12.818c1.368-1.232 1.471-3.347.23-4.725-1.241-1.378-2.876-.964-4.244.267l-.11.104c.118.079.23.172.33.282.636.707.583 1.792-.119 2.424-.389.351-.897.487-1.38.42h-.001l.003.007.091.235.006.012.116.225.043.067.114.172.198.244c1.241 1.378 3.356 1.497 4.723.265zM10.087 22.019l4.347 4.827c.191.212.396.403.607.578l-.85-2.751-.068-.165-3.045-3.382-.991.892z"/></g></g></svg>