<?xml version="1.0" encoding="UTF-8"?>
<svg width="115px" height="39px" viewBox="0 0 115 39" version="1.1" xmlns="http://www.w3.org/2000/svg" xmlns:xlink="http://www.w3.org/1999/xlink">
    <!-- Generator: Sketch 51.3 (57544) - http://www.bohemiancoding.com/sketch -->
    <title>Group</title>
    <desc>Created with Sketch.</desc>
    <defs></defs>
    <g id="Page-1" stroke="none" stroke-width="1" fill="none" fill-rule="evenodd" opacity="0.613616071">
        <g id="Group" fill="#FFFFFF">
            <path d="M2.55206421,11.6734505 C1.36506421,10.3544505 1.44906421,8.33645052 2.74006421,7.17445052 L7.91606421,2.51345052 C9.20706421,1.35145052 11.2230642,1.47845052 12.4100642,2.79745052 L15.2190642,5.91645052 L16.4820642,4.77945052 L13.6730642,1.66045052 C11.8450642,-0.369549479 8.74206421,-0.565549479 6.75506421,1.22345052 L2.11806421,5.39845052 L1.07406421,4.23945052 C0.845064213,3.98545052 0.457064213,3.96045052 0.208064213,4.18445052 C-0.0409357869,4.40845052 -0.0569357869,4.79645052 0.172064213,5.05145052 L1.23306421,6.22945052 C-0.415935787,8.05245052 -0.424935787,10.9054505 1.29006421,12.8094505 L4.09906421,15.9294505 L5.36206421,14.7924505 L2.55306421,11.6734505 L2.55206421,11.6734505 Z M22.7540642,22.4374505 L22.2500642,22.8914505 L22.1410642,23.0824505 C22.0660642,23.2494505 22.0330642,23.4204505 22.0470642,23.5804505 L22.1560642,24.7704505 L24.6330642,22.5404505 L23.4500642,22.3054505 C23.2330642,22.2644505 22.9850642,22.3154505 22.7550642,22.4374505 L22.7540642,22.4374505 Z M23.5510642,13.7474505 C23.6510642,13.8584505 23.7730642,13.9464505 23.9040642,14.0014505 L26.5020642,15.1144505 C26.3590642,14.9054505 26.2040642,14.7004505 26.0290642,14.5054505 L21.6380642,9.62845052 L20.6550642,10.5134505 L23.5530642,13.7464505 L23.5510642,13.7474505 Z M22.2860642,2.52545052 C21.5620642,2.47945052 20.8370642,2.73045052 20.2990642,3.21545052 L15.7660642,7.29645052 C15.5350642,6.81345052 15.2330642,6.35445052 14.8570642,5.93745052 C12.7250642,3.56945052 9.04806421,3.39045052 6.66206421,5.53845052 C4.27606421,7.68645052 4.07006421,11.3614505 6.20206421,13.7304505 C6.57806421,14.1474505 7.00206421,14.4954505 7.45906421,14.7764505 L2.91406421,18.8694505 C2.39806421,19.3334505 2.09306421,19.9694505 2.05406421,20.6594505 C2.01506421,21.3494505 2.24806421,22.0104505 2.70906421,22.5224505 C3.66106421,23.5794505 5.30106421,23.6604505 6.36606421,22.7014505 L10.0930642,19.3464505 C10.4510642,19.0244505 11.0020642,19.0504505 11.3220642,19.4054505 L14.3100642,22.7244505 C14.5140642,22.9504505 14.6540642,23.2274505 14.7170642,23.5304505 L16.8150642,33.2834505 C17.1580642,34.9334505 18.7850642,35.9864505 20.4420642,35.6304505 L20.4950642,35.6174505 C21.0100642,35.4974505 21.4770642,35.2524505 21.8610642,34.9074505 C22.0590642,34.7284505 22.2360642,34.5234505 22.3850642,34.2934505 C22.8330642,33.6054505 22.9880642,32.7854505 22.8190642,31.9794505 L21.1000642,24.0384505 C21.0310642,23.7064505 21.0500642,23.3614505 21.1560642,23.0394505 C21.2620642,22.7174505 21.4510642,22.4264505 21.7030642,22.1994505 C22.2150642,21.7384505 22.9400642,21.5814505 23.5890642,21.7894505 L31.3200642,24.3334505 C32.1000642,24.5834505 32.9320642,24.5134505 33.6650642,24.1374505 C34.3940642,23.7624505 34.9370642,23.1274505 35.1910642,22.3514505 C35.7190642,20.7434505 34.8430642,19.0144505 33.2420642,18.5004505 L23.7560642,15.3934505 C23.4670642,15.3004505 23.2060642,15.1324505 23.0020642,14.9054505 L20.0110642,11.5834505 C19.6910642,11.2284505 19.7230642,10.6774505 20.0810642,10.3554505 L23.8060642,7.00145052 C24.3220642,6.53745052 24.6270642,5.90145052 24.6660642,5.21045052 C24.7030642,4.55045052 24.4890642,3.91045052 24.0630642,3.40745052 C23.6210642,2.88445052 22.9910642,2.57145052 22.2880642,2.52645052 L22.2860642,2.52545052 Z M7.80506421,6.80845052 C9.48506421,5.29545052 12.0740642,5.42145052 13.5770642,7.09045052 C15.0790642,8.75945052 14.9350642,11.3474505 13.2540642,12.8604505 C11.5740642,14.3734505 8.98406421,14.2464505 7.48206421,12.5784505 C5.98006421,10.9094505 6.12506421,8.32145052 7.80506421,6.80845052 Z M5.82206421,20.8924505 L5.22206421,21.4324505 C4.86306421,21.7554505 4.31006421,21.7274505 3.98806421,21.3704505 C3.83206421,21.1974505 3.75406421,20.9744505 3.76706421,20.7414505 C3.78006421,20.5084505 3.88306421,20.2944505 4.05706421,20.1384505 L4.65706421,19.5984505 L5.82306421,20.8934505 L5.82206421,20.8924505 Z M21.1480642,7.09345052 L18.9370642,9.08445052 C17.8730642,10.0424505 17.7800642,11.6794505 18.7300642,12.7344505 L21.7220642,16.0564505 C22.1270642,16.5054505 22.6440642,16.8404505 23.2140642,17.0224505 L32.6990642,20.1294505 C33.4070642,20.3574505 33.7940642,21.1184505 33.5600642,21.8284505 C33.4480642,22.1694505 33.2110642,22.4484505 32.8900642,22.6124505 C32.5670642,22.7784505 32.2000642,22.8094505 31.8620642,22.7004505 L24.1310642,20.1564505 C22.8960642,19.7604505 21.5280642,20.0564505 20.5600642,20.9274505 C20.0830642,21.3574505 19.7250642,21.9054505 19.5250642,22.5144505 C19.3260642,23.1224505 19.2890642,23.7734505 19.4200642,24.4044505 L21.1390642,32.3464505 C21.2130642,32.6994505 21.1450642,33.0604505 20.9480642,33.3634505 C20.7500642,33.6654505 20.4480642,33.8744505 20.0940642,33.9504505 L20.0580642,33.9594505 C19.3390642,34.0944505 18.6420642,33.6344505 18.4920642,32.9134505 L16.3940642,23.1604505 C16.2710642,22.5694505 15.9920642,22.0194505 15.5880642,21.5694505 L12.6000642,18.2504505 C11.6500642,17.1954505 10.0120642,17.1174505 8.94806421,18.0744505 L6.73506421,20.0664505 L5.56906421,18.7714505 L9.21806421,15.4854505 C10.9940642,15.8814505 12.9360642,15.4394505 14.3960642,14.1254505 C15.8550642,12.8114505 16.4980642,10.9264505 16.2900642,9.11845052 L19.9810642,5.79545052 L21.1470642,7.09045052 L21.1480642,7.09345052 Z M22.7480642,4.51845052 C22.9320642,4.73645052 22.9610642,4.96945052 22.9520642,5.12745052 C22.9390642,5.35945052 22.8360642,5.57445052 22.6620642,5.73045052 L22.0620642,6.27045052 L20.8960642,4.97545052 L21.4410642,4.48445052 C21.6350642,4.30945052 21.8980642,4.21845052 22.1620642,4.23645052 C22.3980642,4.25145052 22.6060642,4.35145052 22.7470642,4.51845052 L22.7480642,4.51845052 Z M16.9260642,13.3394505 L13.3540642,16.5554505 C13.1090642,16.7754505 13.1090642,17.1744505 13.3520642,17.4454505 L16.0370642,20.4274505 C16.2810642,20.6984505 16.6770642,20.7394505 16.9220642,20.5184505 L20.4940642,17.3024505 C20.7390642,17.0824505 20.7390642,16.6834505 20.4960642,16.4124505 L17.8110642,13.4304505 C17.5670642,13.1594505 17.1710642,13.1184505 16.9260642,13.3394505 Z M19.1680642,16.7204505 L16.4830642,19.1384505 L14.6810642,17.1374505 L17.3660642,14.7194505 L19.1680642,16.7204505 Z M12.4520642,11.9764505 C13.8200642,10.7444505 13.9230642,8.62945052 12.6820642,7.25145052 C11.4410642,5.87345052 9.80606421,6.28745052 8.43806421,7.51845052 L8.32806421,7.62245052 C8.44606421,7.70145052 8.55806421,7.79445052 8.65806421,7.90445052 C9.29406421,8.61145052 9.24106421,9.69645052 8.53906421,10.3284505 C8.15006421,10.6794505 7.64206421,10.8154505 7.15906421,10.7484505 L7.15806421,10.7484505 L7.16106421,10.7554505 L7.25206421,10.9904505 L7.25806421,11.0024505 L7.37406421,11.2274505 L7.41706421,11.2944505 L7.53106421,11.4664505 L7.72906421,11.7104505 C8.97006421,13.0884505 11.0850642,13.2074505 12.4520642,11.9754505 L12.4520642,11.9764505 Z M9.62106421,21.1774505 L13.9680642,26.0044505 C14.1590642,26.2164505 14.3640642,26.4074505 14.5750642,26.5824505 L13.7250642,23.8314505 L13.6570642,23.6664505 L10.6120642,20.2844505 L9.62106421,21.1764505 L9.62106421,21.1774505 Z" id="Shape" fill-rule="nonzero"></path>
            <path d="M49.5390625,14.1582031 C49.5390625,13.7350239 49.3779313,13.3899753 49.0556641,13.1230469 C48.7333968,12.8561185 48.1230514,12.6217458 47.2246094,12.4199219 C45.9811136,12.1529935 45.0257195,11.7786482 44.3583984,11.296875 C43.6910774,10.8151018 43.3574219,10.170577 43.3574219,9.36328125 C43.3574219,8.50390195 43.7236292,7.76823223 44.4560547,7.15625 C45.1884802,6.54426777 46.137364,6.23828125 47.3027344,6.23828125 C48.500657,6.23828125 49.4706994,6.56379883 50.2128906,7.21484375 C50.9550818,7.86588867 51.309896,8.62434463 51.2773438,9.49023438 L51.2578125,9.54882812 L49.421875,9.54882812 C49.421875,9.09309668 49.2216817,8.67968936 48.8212891,8.30859375 C48.4208964,7.93749814 47.9147166,7.75195312 47.3027344,7.75195312 C46.6256477,7.75195312 46.1194678,7.90494639 45.7841797,8.2109375 C45.4488916,8.51692861 45.28125,8.8815083 45.28125,9.3046875 C45.28125,9.72135625 45.4261053,10.0436187 45.7158203,10.2714844 C46.0055353,10.4993501 46.6028601,10.7076813 47.5078125,10.8964844 C48.8033919,11.1699232 49.786455,11.5572892 50.4570312,12.0585938 C51.1276075,12.5598983 51.4628906,13.2141887 51.4628906,14.0214844 C51.4628906,14.9589891 51.0836626,15.7239554 50.3251953,16.3164062 C49.566728,16.9088571 48.575527,17.2050781 47.3515625,17.2050781 C46.0038995,17.2050781 44.9427122,16.8632847 44.1679688,16.1796875 C43.3932253,15.4960903 43.0253904,14.6985723 43.0644531,13.7871094 L43.0839844,13.7285156 L44.9199219,13.7285156 C44.9524741,14.4121128 45.2063778,14.9117823 45.6816406,15.2275391 C46.1569034,15.5432958 46.7135385,15.7011719 47.3515625,15.7011719 C48.0351597,15.7011719 48.5706361,15.5563166 48.9580078,15.2666016 C49.3453795,14.9768866 49.5390625,14.6074241 49.5390625,14.1582031 Z M61.4304688,17.2050781 C59.9135341,17.2050781 58.7302777,16.7200569 57.8806641,15.75 C57.0310505,14.7799431 56.60625,13.5039142 56.60625,11.921875 L56.60625,11.4921875 C56.60625,9.97525283 57.0440712,8.72038257 57.9197266,7.72753906 C58.795382,6.73469556 59.8647073,6.23828125 61.1277344,6.23828125 C62.5405019,6.23828125 63.6000616,6.67772998 64.3064454,7.55664062 C65.0128291,8.43555127 65.3660157,9.60415938 65.3660157,11.0625 L65.3660157,12.078125 L58.6082032,12.078125 L58.5789063,12.1269531 C58.5789063,13.1881563 58.813279,14.0491503 59.2820313,14.7099609 C59.7507836,15.3707715 60.4669223,15.7011719 61.4304688,15.7011719 C62.0815137,15.7011719 62.6527971,15.6083994 63.144336,15.4228516 C63.6358749,15.2373038 64.0574202,14.9817725 64.4089844,14.65625 L65.1609375,15.90625 C64.7833315,16.2708352 64.2852896,16.5784493 63.6667969,16.8291016 C63.0483042,17.0797539 62.302869,17.2050781 61.4304688,17.2050781 Z M61.1277344,7.75195312 C60.4571582,7.75195312 59.9021507,8.0107396 59.4626954,8.52832031 C59.02324,9.04590103 58.754688,9.7083293 58.6570313,10.515625 L58.6765625,10.5644531 L63.4421875,10.5644531 L63.4421875,10.4082031 C63.4421875,9.63997012 63.2533874,9.00521084 62.8757813,8.50390625 C62.4981752,8.00260166 61.9154988,7.75195312 61.1277344,7.75195312 Z M74.9234376,15.7011719 C75.5158885,15.7011719 76.0334614,15.5042337 76.476172,15.1103516 C76.9188825,14.7164694 77.1402345,14.2330758 77.1402345,13.6601562 L78.8785157,13.6601562 L78.9078126,13.71875 C78.9338544,14.6302129 78.5432333,15.4391241 77.7359376,16.1455078 C76.9286419,16.8518916 75.9911513,17.2050781 74.9234376,17.2050781 C73.4390552,17.2050781 72.2932333,16.7005259 71.4859376,15.6914062 C70.6786419,14.6822866 70.2750001,13.4257888 70.2750001,11.921875 L70.2750001,11.5117188 C70.2750001,10.0208259 70.6802695,8.76921079 71.4908204,7.75683594 C72.3013713,6.74446108 73.4455656,6.23828125 74.9234376,6.23828125 C76.1018289,6.23828125 77.0669885,6.60286094 77.8189454,7.33203125 C78.5709023,8.06120156 78.9338544,8.9563749 78.9078126,10.0175781 L78.8882813,10.0761719 L77.1402345,10.0761719 C77.1402345,9.4316374 76.9302756,8.88314028 76.5103517,8.43066406 C76.0904277,7.97818784 75.5614616,7.75195312 74.9234376,7.75195312 C73.9794225,7.75195312 73.2909528,8.1181604 72.8580079,8.85058594 C72.425063,9.58301147 72.2085938,10.4700469 72.2085938,11.5117188 L72.2085938,11.921875 C72.2085938,12.9830782 72.4218079,13.8782516 72.8482423,14.6074219 C73.2746767,15.3365922 73.9664016,15.7011719 74.9234376,15.7011719 Z M87.0687501,3.88476562 L87.0687501,6.43359375 L89.0707033,6.43359375 L89.0707033,7.859375 L87.0687501,7.859375 L87.0687501,14.2753906 C87.0687501,14.7701848 87.1712882,15.1184886 87.3763673,15.3203125 C87.5814465,15.5221364 87.8532537,15.6230469 88.191797,15.6230469 C88.3024747,15.6230469 88.4261713,15.6083986 88.5628908,15.5791016 C88.6996102,15.5498045 88.8135414,15.5188804 88.9046876,15.4863281 L89.1683595,16.8046875 C89.0251296,16.9218756 88.8135432,17.0179033 88.5335939,17.0927734 C88.2536446,17.1676436 87.9769546,17.2050781 87.7035158,17.2050781 C86.9222619,17.2050781 86.3005233,16.9690779 85.8382814,16.4970703 C85.3760395,16.0250627 85.144922,15.2845103 85.144922,14.2753906 L85.144922,7.859375 L83.4652345,7.859375 L83.4652345,6.43359375 L85.144922,6.43359375 L85.144922,3.88476562 L87.0687501,3.88476562 Z M93.8820314,11.6191406 C93.8820314,10.0566328 94.3052043,8.76921079 95.1515627,7.75683594 C95.9979211,6.74446108 97.1469981,6.23828125 98.5988283,6.23828125 C100.063679,6.23828125 101.220894,6.7428335 102.070508,7.75195312 C102.920122,8.76107275 103.344922,10.0501224 103.344922,11.6191406 L103.344922,11.8339844 C103.344922,13.4095131 102.921749,14.6985627 102.075391,15.7011719 C101.229032,16.7037811 100.0767,17.2050781 98.6183596,17.2050781 C97.1600189,17.2050781 96.0060591,16.7021535 95.1564455,15.6962891 C94.3068319,14.6904247 93.8820314,13.4030026 93.8820314,11.8339844 L93.8820314,11.6191406 Z M95.8058596,11.8339844 C95.8058596,12.9537816 96.0418598,13.8782516 96.5138674,14.6074219 C96.9858749,15.3365922 97.6873653,15.7011719 98.6183596,15.7011719 C99.5363329,15.7011719 100.232941,15.3365922 100.708203,14.6074219 C101.183466,13.8782516 101.421094,12.9537816 101.421094,11.8339844 L101.421094,11.6191406 C101.421094,10.5123643 101.181839,9.59114951 100.703321,8.85546875 C100.224802,8.11978799 99.5233121,7.75195312 98.5988283,7.75195312 C97.680855,7.75195312 96.9858749,8.11978799 96.5138674,8.85546875 C96.0418598,9.59114951 95.8058596,10.5123643 95.8058596,11.6191406 L95.8058596,11.8339844 Z M113.898438,8.1328125 L112.91211,8.07421875 C112.404295,8.07421875 111.976239,8.19466025 111.62793,8.43554688 C111.279621,8.6764335 111.011069,9.01497178 110.822266,9.45117188 L110.822266,17 L108.898438,17 L108.898438,6.43359375 L110.617188,6.43359375 L110.802735,7.9765625 C111.102215,7.42968477 111.471678,7.00325674 111.911133,6.69726562 C112.350588,6.39127451 112.856768,6.23828125 113.429688,6.23828125 C113.572918,6.23828125 113.709635,6.24967437 113.839844,6.27246094 C113.970053,6.29524751 114.077474,6.31966133 114.16211,6.34570312 L113.898438,8.1328125 Z M49.5390625,31.1582031 C49.5390625,30.7350239 49.3779313,30.3899753 49.0556641,30.1230469 C48.7333968,29.8561185 48.1230514,29.6217458 47.2246094,29.4199219 C45.9811136,29.1529935 45.0257195,28.7786482 44.3583984,28.296875 C43.6910774,27.8151018 43.3574219,27.170577 43.3574219,26.3632812 C43.3574219,25.503902 43.7236292,24.7682322 44.4560547,24.15625 C45.1884802,23.5442678 46.137364,23.2382812 47.3027344,23.2382812 C48.500657,23.2382812 49.4706994,23.5637988 50.2128906,24.2148438 C50.9550818,24.8658887 51.309896,25.6243446 51.2773438,26.4902344 L51.2578125,26.5488281 L49.421875,26.5488281 C49.421875,26.0930967 49.2216817,25.6796894 48.8212891,25.3085938 C48.4208964,24.9374981 47.9147166,24.7519531 47.3027344,24.7519531 C46.6256477,24.7519531 46.1194678,24.9049464 45.7841797,25.2109375 C45.4488916,25.5169286 45.28125,25.8815083 45.28125,26.3046875 C45.28125,26.7213562 45.4261053,27.0436187 45.7158203,27.2714844 C46.0055353,27.4993501 46.6028601,27.7076813 47.5078125,27.8964844 C48.8033919,28.1699232 49.786455,28.5572892 50.4570312,29.0585938 C51.1276075,29.5598983 51.4628906,30.2141887 51.4628906,31.0214844 C51.4628906,31.9589891 51.0836626,32.7239554 50.3251953,33.3164062 C49.566728,33.9088571 48.575527,34.2050781 47.3515625,34.2050781 C46.0038995,34.2050781 44.9427122,33.8632847 44.1679688,33.1796875 C43.3932253,32.4960903 43.0253904,31.6985723 43.0644531,30.7871094 L43.0839844,30.7285156 L44.9199219,30.7285156 C44.9524741,31.4121128 45.2063778,31.9117823 45.6816406,32.2275391 C46.1569034,32.5432958 46.7135385,32.7011719 47.3515625,32.7011719 C48.0351597,32.7011719 48.5706361,32.5563166 48.9580078,32.2666016 C49.3453795,31.9768866 49.5390625,31.6074241 49.5390625,31.1582031 Z M66.059375,29.1171875 C66.059375,30.6406326 65.6947954,31.8694615 64.965625,32.8037109 C64.2364547,33.7379604 63.2306054,34.2050781 61.9480469,34.2050781 C61.297002,34.2050781 60.7257187,34.0960297 60.2341797,33.8779297 C59.7426408,33.6598296 59.3243507,33.3326845 58.9792969,32.8964844 L58.9792969,38.0625 L57.0554688,38.0625 L57.0554688,23.4335938 L58.5300782,23.4335938 L58.8328125,24.8007812 C59.1778664,24.2929662 59.6075496,23.9056003 60.121875,23.6386719 C60.6362005,23.3717435 61.2351529,23.2382812 61.91875,23.2382812 C63.2273503,23.2382812 64.2445928,23.7574818 64.9705079,24.7958984 C65.6964229,25.8343151 66.059375,27.2063717 66.059375,28.9121094 L66.059375,29.1171875 Z M64.1355469,28.9121094 C64.1355469,27.7141867 63.8995467,26.729496 63.4275391,25.9580078 C62.9555315,25.1865196 62.2605515,24.8007812 61.3425782,24.8007812 C60.78919,24.8007812 60.3171895,24.9261055 59.9265625,25.1767578 C59.5359356,25.4274101 59.2201835,25.7708312 58.9792969,26.2070312 L58.9792969,31.3144531 C59.2201835,31.7506532 59.5359356,32.0908191 59.9265625,32.3349609 C60.3171895,32.5791028 60.7957003,32.7011719 61.3621094,32.7011719 C62.2735723,32.7011719 62.9636696,32.3675164 63.4324219,31.7001953 C63.9011743,31.0328743 64.1355469,30.1718803 64.1355469,29.1171875 L64.1355469,28.9121094 Z M78.116797,34 C78.0516925,33.680988 78.0012373,33.3994153 77.9654298,33.1552734 C77.9296223,32.9111316 77.9084637,32.6653658 77.9019532,32.4179688 C77.5438785,32.9257838 77.0767608,33.3505842 76.500586,33.6923828 C75.9244113,34.0341814 75.3043003,34.2050781 74.6402345,34.2050781 C73.5399686,34.2050781 72.7017608,33.9235054 72.125586,33.3603516 C71.5494113,32.7971977 71.2613282,32.0208383 71.2613282,31.03125 C71.2613282,30.0221304 71.6698528,29.2327502 72.4869142,28.6630859 C73.3039755,28.0934216 74.4123629,27.8085938 75.8121095,27.8085938 L77.9019532,27.8085938 L77.9019532,26.7636719 C77.9019532,26.1451792 77.713153,25.6552752 77.335547,25.2939453 C76.9579409,24.9326154 76.4240921,24.7519531 75.7339845,24.7519531 C75.1089813,24.7519531 74.6044291,24.9082016 74.2203126,25.2207031 C73.8361961,25.5332047 73.6441407,25.9075499 73.6441407,26.34375 L71.8179688,26.3632812 L71.7984376,26.3046875 C71.7528645,25.5364545 72.1125614,24.8333365 72.8775392,24.1953125 C73.6425169,23.5572885 74.6304628,23.2382812 75.8414063,23.2382812 C77.039329,23.2382812 78.002861,23.5426402 78.7320313,24.1513672 C79.4612017,24.7600942 79.8257813,25.6373641 79.8257813,26.7832031 L79.8257813,31.8710938 C79.8257813,32.2486998 79.8453124,32.6132795 79.8843751,32.9648438 C79.9234378,33.316408 79.9950517,33.6614566 80.0992188,34 L78.116797,34 Z M74.9234376,32.59375 C75.6200557,32.59375 76.2483046,32.4147153 76.8082032,32.0566406 C77.3681019,31.6985659 77.7326815,31.2884138 77.9019532,30.8261719 L77.9019532,29.1074219 L75.7437501,29.1074219 C74.9690066,29.1074219 74.3488957,29.3027324 73.8833985,29.6933594 C73.4179014,30.0839863 73.1851563,30.5429661 73.1851563,31.0703125 C73.1851563,31.5390648 73.3316393,31.9101549 73.6246095,32.1835938 C73.9175797,32.4570326 74.3505181,32.59375 74.9234376,32.59375 Z M90.0179689,32.7011719 C90.6104198,32.7011719 91.1279927,32.5042337 91.5707033,32.1103516 C92.0134138,31.7164694 92.2347658,31.2330758 92.2347658,30.6601562 L93.973047,30.6601562 L94.0023439,30.71875 C94.0283857,31.6302129 93.6377646,32.4391241 92.8304689,33.1455078 C92.0231732,33.8518916 91.0856826,34.2050781 90.0179689,34.2050781 C88.5335865,34.2050781 87.3877646,33.7005259 86.5804689,32.6914062 C85.7731732,31.6822866 85.3695314,30.4257888 85.3695314,28.921875 L85.3695314,28.5117188 C85.3695314,27.0208259 85.7748008,25.7692108 86.5853517,24.7568359 C87.3959026,23.7444611 88.5400969,23.2382812 90.0179689,23.2382812 C91.1963602,23.2382812 92.1615198,23.6028609 92.9134767,24.3320312 C93.6654336,25.0612016 94.0283857,25.9563749 94.0023439,27.0175781 L93.9828126,27.0761719 L92.2347658,27.0761719 C92.2347658,26.4316374 92.0248069,25.8831403 91.604883,25.4306641 C91.184959,24.9781878 90.6559929,24.7519531 90.0179689,24.7519531 C89.0739538,24.7519531 88.3854841,25.1181604 87.9525392,25.8505859 C87.5195943,26.5830115 87.3031251,27.4700469 87.3031251,28.5117188 L87.3031251,28.921875 C87.3031251,29.9830782 87.5163392,30.8782516 87.9427736,31.6074219 C88.369208,32.3365922 89.0609329,32.7011719 90.0179689,32.7011719 Z M103.8625,34.2050781 C102.345566,34.2050781 101.162309,33.7200569 100.312696,32.75 C99.4630819,31.7799431 99.0382814,30.5039142 99.0382814,28.921875 L99.0382814,28.4921875 C99.0382814,26.9752528 99.4761026,25.7203826 100.351758,24.7275391 C101.227413,23.7346956 102.296739,23.2382812 103.559766,23.2382812 C104.972533,23.2382812 106.032093,23.67773 106.738477,24.5566406 C107.44486,25.4355513 107.798047,26.6041594 107.798047,28.0625 L107.798047,29.078125 L101.040235,29.078125 L101.010938,29.1269531 C101.010938,30.1881563 101.24531,31.0491503 101.714063,31.7099609 C102.182815,32.3707715 102.898954,32.7011719 103.8625,32.7011719 C104.513545,32.7011719 105.084828,32.6083994 105.576367,32.4228516 C106.067906,32.2373038 106.489452,31.9817725 106.841016,31.65625 L107.592969,32.90625 C107.215363,33.2708352 106.717321,33.5784493 106.098828,33.8291016 C105.480336,34.0797539 104.7349,34.2050781 103.8625,34.2050781 Z M103.559766,24.7519531 C102.88919,24.7519531 102.334182,25.0107396 101.894727,25.5283203 C101.455271,26.045901 101.186719,26.7083293 101.089063,27.515625 L101.108594,27.5644531 L105.874219,27.5644531 L105.874219,27.4082031 C105.874219,26.6399701 105.685419,26.0052108 105.307813,25.5039062 C104.930207,25.0026017 104.34753,24.7519531 103.559766,24.7519531 Z" id="sector-space"></path>
        </g>
    </g>
</svg>