<svg width="98" height="38" viewBox="0 0 98 38" xmlns="http://www.w3.org/2000/svg"><title>Group 5</title><desc>Created with Sketch.</desc><g fill="none"><path d="M24.108 2.736c.072.408.126.69.162.846.036.156.054.366.054.63 0 .792-.174 1.53-.522 2.214-.348.684-.822 1.17-1.422 1.458-.48-.648-1.068-1.206-1.764-1.674-.696-.468-1.458-.852-2.286-1.152-.828-.3-1.686-.522-2.574-.666-.888-.144-1.752-.216-2.592-.216-.84 0-1.626.066-2.358.198-.732.132-1.38.312-1.944.54-.564.228-1.008.51-1.332.846-.324.336-.486.72-.486 1.152.072.528.396 1.062.972 1.602s1.284 1.068 2.124 1.584c.84.516 1.77 1.026 2.79 1.53s2.022.984 3.006 1.44c1.224.576 2.28 1.11 3.168 1.602.888.492 1.62 1.032 2.196 1.62.576.588 1.008 1.254 1.296 1.998.288.744.432 1.644.432 2.7 0 1.224-.204 2.37-.612 3.438-.408 1.068-1.002 1.998-1.782 2.79s-1.722 1.41-2.826 1.854c-1.104.444-2.34.666-3.708.666-1.344 0-2.796-.204-4.356-.612-1.56-.408-3.018-.966-4.374-1.674-1.356-.708-2.484-1.524-3.384-2.448-.9-.924-1.35-1.902-1.35-2.934 0-.48.138-1.092.414-1.836.276-.744.774-1.524 1.494-2.34.072.72.462 1.572 1.17 2.556s1.77 1.896 3.186 2.736c1.32.768 2.682 1.326 4.086 1.674 1.404.348 2.718.522 3.942.522 1.344 0 2.436-.168 3.276-.504.84-.336 1.5-.738 1.98-1.206.48-.468.816-.942 1.008-1.422.192-.48.3-.864.324-1.152-.024-.48-.246-.942-.666-1.386-.42-.444-.984-.876-1.692-1.296-.708-.42-1.53-.846-2.466-1.278-.936-.432-1.908-.864-2.916-1.296-1.512-.672-2.814-1.302-3.906-1.89-1.092-.588-1.992-1.188-2.7-1.8-.708-.612-1.224-1.254-1.548-1.926-.324-.672-.486-1.44-.486-2.304 0-1.344.408-2.616 1.224-3.816.816-1.2 1.992-2.112 3.528-2.736.768-.336 1.59-.576 2.466-.72.876-.144 1.734-.216 2.574-.216 1.584 0 3.132.216 4.644.648 1.512.432 3.024.984 4.536 1.656zm14.544 9.36c-.096 1.488-.36 2.766-.792 3.834-.432 1.068-1.05 2.004-1.854 2.808-.804.804-1.782 1.53-2.934 2.178-1.152.648-2.496 1.272-4.032 1.872l-.018.45-.018.486c0 .312.024.636.072.972.048.336.132.648.252.936.12.288.288.522.504.702.216.18.492.27.828.27.648 0 1.284-.144 1.908-.432.624-.288 1.218-.642 1.782-1.062.564-.42 1.092-.876 1.584-1.368.492-.492.93-.942 1.314-1.35.24.216.444.42.612.612-1.08 1.44-2.262 2.634-3.546 3.582-1.284.948-2.502 1.554-3.654 1.818-1.656-.192-2.946-.798-3.87-1.818-.924-1.02-1.386-2.25-1.386-3.69 0-.984.138-1.986.414-3.006.276-1.02.66-2.004 1.152-2.952.492-.948 1.068-1.842 1.728-2.682.66-.84 1.368-1.572 2.124-2.196.756-.624 1.536-1.116 2.34-1.476.804-.36 1.602-.54 2.394-.54 1.104.144 2.136.828 3.096 2.052zm-2.484 1.188c-.648.096-1.32.36-2.016.792-.696.432-1.35 1.008-1.962 1.728-.612.72-1.17 1.56-1.674 2.52s-.9 1.992-1.188 3.096c1.92-.96 3.516-2.142 4.788-3.546 1.272-1.404 1.956-2.934 2.052-4.59zm4.356 7.38c0-1.368.282-2.694.846-3.978.564-1.284 1.308-2.424 2.232-3.42.924-.996 1.98-1.8 3.168-2.412 1.188-.612 2.418-.918 3.69-.918 1.248 0 2.208.312 2.88.936.672.624 1.008 1.512 1.008 2.664 0 .552-.078 1.086-.234 1.602-.156.516-.36.978-.612 1.386-.252.408-.546.738-.882.99-.336.252-.672.378-1.008.378-.288 0-.582-.09-.882-.27-.3-.18-.546-.414-.738-.702 1.608-1.464 2.412-2.796 2.412-3.996 0-.696-.276-1.044-.828-1.044-.48 0-1.08.228-1.8.684-.72.456-1.416 1.056-2.088 1.8-1.032 1.152-1.818 2.43-2.358 3.834s-.81 2.874-.81 4.41c0 1.944.432 3.108 1.296 3.492.36-.048.78-.156 1.26-.324s.996-.39 1.548-.666 1.122-.594 1.71-.954c.588-.36 1.158-.744 1.71-1.152.096.072.18.18.252.324.072.144.108.276.108.396-.408.504-.876.996-1.404 1.476-.528.48-1.08.918-1.656 1.314-.576.396-1.134.732-1.674 1.008s-1.014.45-1.422.522c-.792-.072-1.536-.318-2.232-.738-.696-.42-1.302-.966-1.818-1.638-.516-.672-.924-1.44-1.224-2.304-.3-.864-.45-1.764-.45-2.7zm16.884-7.452c-.12-.144-.228-.45-.324-.918s-.144-.87-.144-1.206c.624.048 1.224.09 1.8.126.576.036 1.104.066 1.584.09.36-.72.75-1.434 1.17-2.142.42-.708.828-1.356 1.224-1.944.396-.588.768-1.086 1.116-1.494.348-.408.618-.672.81-.792.24 0 .546.042.918.126.372.084.75.192 1.134.324.384.132.732.27 1.044.414.312.144.528.288.648.432-.72.912-1.338 1.758-1.854 2.538-.516.78-1.074 1.674-1.674 2.682.48 0 .966-.012 1.458-.036.492-.024.99-.06 1.494-.108.12.12.216.27.288.45.072.18.108.366.108.558-1.176.432-2.604.672-4.284.72-.6 1.152-1.134 2.298-1.602 3.438-.468 1.14-.864 2.238-1.188 3.294-.324 1.056-.576 2.052-.756 2.988-.18.936-.27 1.776-.27 2.52 0 1.056.396 1.644 1.188 1.764.72-.096 1.404-.276 2.052-.54.648-.264 1.224-.6 1.728-1.008.144.216.228.396.252.54-.144.216-.39.468-.738.756s-.726.57-1.134.846c-.408.276-.804.51-1.188.702-.384.192-.672.3-.864.324-.6-.024-1.2-.156-1.8-.396-.6-.24-1.146-.54-1.638-.9s-.894-.762-1.206-1.206c-.312-.444-.468-.882-.468-1.314 0-.576.078-1.302.234-2.178.156-.876.378-1.83.666-2.862.288-1.032.624-2.112 1.008-3.24.384-1.128.804-2.244 1.26-3.348h-2.052zm14.796 15.048c-1.368-.144-2.46-.744-3.276-1.8-.816-1.056-1.224-2.4-1.224-4.032 0-.96.144-1.956.432-2.988.288-1.032.696-2.034 1.224-3.006s1.152-1.89 1.872-2.754c.72-.864 1.5-1.608 2.34-2.232 1.32-.984 2.556-1.476 3.708-1.476.768.408 1.524 1.26 2.268 2.556l.324-.018.324-.018c1.272 0 1.908 1.128 1.908 3.384 0 1.512-.246 2.946-.738 4.302-.492 1.356-1.176 2.586-2.052 3.69-.876 1.104-1.92 2.034-3.132 2.79-1.212.756-2.538 1.29-3.978 1.602zm1.836-11.34c-.408.552-.792 1.152-1.152 1.8-.36.648-.672 1.302-.936 1.962-.264.66-.468 1.296-.612 1.908-.144.612-.216 1.158-.216 1.638 0 .576.096 1.128.288 1.656.192.528.408.828.648.9 1.08-.24 2.07-.69 2.97-1.35.9-.66 1.68-1.482 2.34-2.466.66-.984 1.176-2.1 1.548-3.348.372-1.248.558-2.58.558-3.996 0-.624-.036-1.116-.108-1.476-.072-.36-.192-.672-.36-.936-1.056.312-1.998.816-2.826 1.512-.828.696-1.542 1.428-2.142 2.196zm8.928 9.36c.12-.696.33-1.614.63-2.754s.654-2.352 1.062-3.636c.408-1.284.84-2.574 1.296-3.87.456-1.296.9-2.46 1.332-3.492.312-.744.588-1.326.828-1.746.24-.42.504-.774.792-1.062.336.048.684.132 1.044.252s.708.264 1.044.432c.336.168.636.342.9.522s.468.354.612.522c-.648.768-1.218 1.644-1.71 2.628-.492.984-.99 2.244-1.494 3.78 1.296-1.152 2.442-2.256 3.438-3.312s1.926-2.232 2.79-3.528c.144-.12.396-.18.756-.18.336 0 .66.054.972.162.312.108.528.258.648.45-.432 1.152-.648 2.292-.648 3.42 0 1.056.156 1.848.468 2.376-.024.144-.186.42-.486.828s-.63.792-.99 1.152c-.648-.336-1.224-.798-1.728-1.386-.504-.588-.876-1.23-1.116-1.926-1.128.792-2.088 1.566-2.88 2.322-.792.756-1.47 1.596-2.034 2.52-.564.924-1.044 1.986-1.44 3.186-.396 1.2-.774 2.628-1.134 4.284-.216-.024-.474-.102-.774-.234-.3-.132-.6-.294-.9-.486-.3-.192-.57-.396-.81-.612-.24-.216-.396-.42-.468-.612z" fill="#EB433B"/><path d="M26.924 35.33c0-.246-.086-.444-.257-.593-.171-.149-.472-.29-.903-.422-.738-.223-1.299-.485-1.681-.787-.382-.302-.573-.713-.573-1.235 0-.524.215-.953.646-1.285.431-.333.98-.499 1.648-.499.709 0 1.28.179 1.712.536.432.357.641.826.626 1.406l-.009.026h-1.244c0-.319-.097-.565-.29-.736-.193-.171-.464-.257-.813-.257-.316 0-.561.076-.734.229-.173.152-.259.347-.259.584 0 .217.094.395.281.534.188.139.511.286.971.442.703.199 1.239.459 1.608.78s.554.743.554 1.268c0 .548-.214.98-.642 1.296-.428.316-.993.475-1.696.475-.688 0-1.28-.171-1.773-.514-.494-.343-.733-.854-.719-1.534l.009-.026h1.244c0 .378.111.656.334.835.223.179.524.268.905.268.343 0 .604-.072.784-.215.18-.144.27-.335.27-.576zm10.591-.65v2.32h-1.283v-6.398h2.448c.735 0 1.314.187 1.736.563.422.375.633.869.633 1.481 0 .612-.211 1.104-.633 1.477-.422.372-1 .558-1.736.558h-1.165zm0-.989h1.165c.357 0 .628-.097.813-.292.185-.195.277-.443.277-.745 0-.308-.092-.562-.275-.762-.183-.201-.455-.301-.815-.301h-1.165v2.101zm14.085 1.929h-2.074l-.431 1.38h-1.34l2.158-6.398h1.314l2.149 6.398h-1.34l-.435-1.38zm-1.758-1.006h1.446l-.708-2.254h-.026l-.712 2.254zm15.979.268l.009.026c.012.683-.196 1.217-.624 1.604s-1.018.58-1.771.58c-.768 0-1.387-.247-1.859-.74-.472-.494-.708-1.132-.708-1.914v-1.27c0-.779.23-1.417.69-1.914.46-.497 1.063-.745 1.811-.745.779 0 1.389.19 1.828.571.439.381.653.917.642 1.608l-.009.026h-1.248c0-.41-.099-.716-.297-.916-.198-.201-.503-.301-.916-.301-.384 0-.683.155-.899.464-.215.309-.323.708-.323 1.198v1.279c0 .492.114.894.341 1.204.227.311.543.466.947.466.384 0 .67-.1.859-.301.189-.201.283-.509.283-.925h1.244zm11.663-.694h-2.373v1.828h2.821v.984h-4.104v-6.398h4.096v.989h-2.813v1.608h2.373v.989z" fill="#EF443A"/></g></svg>