<?xml version="1.0" encoding="UTF-8"?>
<svg width="262px" height="59px" viewBox="0 0 262 59" version="1.1" xmlns="http://www.w3.org/2000/svg" xmlns:xlink="http://www.w3.org/1999/xlink">
    <!-- Generator: Sketch 51.3 (57544) - http://www.bohemiancoding.com/sketch -->
    <title>twitter</title>
    <desc>Created with Sketch.</desc>
    <defs></defs>
    <g id="Page-1" stroke="none" stroke-width="1" fill="none" fill-rule="evenodd">
        <g id="twitter">
            <rect id="Rectangle-path" fill="#57AAF4" fill-rule="nonzero" x="0" y="0" width="262" height="59" rx="5"></rect>
            <text id="SHARE-POST-TO-TWITTE" font-family="Roboto-Bold, Roboto" font-size="14" font-weight="bold" fill="#FFFFFF">
                <tspan x="50" y="34">SHARE POST TO TWITTER</tspan>
            </text>
            <path d="M32.9991177,24.2099928 C33.7190753,23.773063 34.2700429,23.0796524 34.5330275,22.2544533 C33.8600671,22.657929 33.1121111,22.9539464 32.3191577,23.1131064 C31.6821952,22.4257784 30.7762485,22 29.7733075,22 C27.8474207,22 26.2885124,23.5814627 26.2885124,25.5329471 C26.2885124,25.8086894 26.3185107,26.0773353 26.3775072,26.3368573 C23.4796777,26.1878349 20.9108288,24.7817524 19.1909299,22.6417089 C18.8929475,23.1627806 18.7189577,23.7720492 18.7189577,24.4188269 C18.7189577,25.6444605 19.3329216,26.7271542 20.2688665,27.3597393 C19.6979001,27.3425054 19.1599318,27.1813179 18.6879595,26.9197683 L18.6879595,26.9643736 C18.6879595,28.6776249 19.8888889,30.1080377 21.485795,30.4304127 C21.1938121,30.5115134 20.8848303,30.555105 20.5658491,30.555105 C20.3408623,30.555105 20.1238751,30.5317886 19.9078878,30.4912382 C20.3528616,31.8942795 21.6407858,32.9171615 23.1646962,32.9475742 C21.9697665,33.8964518 20.4688548,34.4621289 18.832951,34.4621289 C18.5499676,34.4621289 18.2749838,34.444895 18,34.411441 C19.546909,35.4170891 21.3788012,36 23.3466855,36 C29.7593083,36 33.2681019,30.6128892 33.2681019,25.9414917 L33.2581025,25.4842867 C33.9390624,24.9895728 34.5290277,24.3661115 34.9970002,23.6564808 C34.3750368,23.9372918 33.7020763,24.1258508 32.9991177,24.2099928 Z" id="Shape" fill="#FFFFFF" fill-rule="nonzero"></path>
        </g>
    </g>
</svg>